<svg xmlns="http://www.w3.org/2000/svg" viewBox="0 0 512 512">
  <defs>
    <linearGradient id="ec" x1="0" y1="0" x2="1" y2="1">
      <stop offset="0" stop-color="#0F5C56"/>
      <stop offset="1" stop-color="#14B8A6"/>
    </linearGradient>
  </defs>
  <rect width="512" height="512" rx="112" fill="#ffffff"/>

  <!-- E -->
  <g fill="url(#ec)">
    <rect x="96" y="150" width="54" height="212" rx="10"/>
    <rect x="96" y="150" width="150" height="52" rx="10"/>
    <rect x="96" y="230" width="126" height="50" rx="10"/>
    <rect x="96" y="310" width="150" height="52" rx="10"/>
  </g>

  <!-- C (thick arc, opening to the right) -->
  <path fill="url(#ec)"
    d="M416 196
       a132 132 0 1 0 0 120
       l-50 0
       a80 80 0 1 1 0 -120
       z"/>

  <!-- Calculator nested in the C opening -->
  <g>
    <rect x="300" y="196" width="120" height="120" rx="16" fill="#ffffff"/>
    <rect x="312" y="208" width="96" height="22" rx="6" fill="#0F5C56"/>
    <!-- keypad 3x3, top-left key highlighted -->
    <rect x="312" y="240" width="24" height="20" rx="5" fill="#5EEAD4"/>
    <rect x="348" y="240" width="24" height="20" rx="5" fill="#0F5C56"/>
    <rect x="384" y="240" width="24" height="20" rx="5" fill="#0F5C56"/>
    <rect x="312" y="268" width="24" height="20" rx="5" fill="#0F5C56"/>
    <rect x="348" y="268" width="24" height="20" rx="5" fill="#0F5C56"/>
    <rect x="384" y="268" width="24" height="20" rx="5" fill="#0F5C56"/>
    <rect x="312" y="296" width="24" height="14" rx="5" fill="#0F5C56"/>
    <rect x="348" y="296" width="24" height="14" rx="5" fill="#0F5C56"/>
    <rect x="384" y="296" width="24" height="14" rx="5" fill="#0F5C56"/>
  </g>
</svg>
